<svg width="30" height="16" viewBox="0 0 30 16" fill="none" xmlns="http://www.w3.org/2000/svg">
<path d="M27.0014 0.342633L14.5064 12.5226L2.01142 0.342633C1.78817 0.124577 1.48848 0.00249982 1.17642 0.00249982C0.864348 0.00249982 0.56466 0.124577 0.341416 0.342633C0.233321 0.448543 0.147447 0.574957 0.0888216 0.714473C0.0301967 0.853988 0 1.0038 0 1.15513C0 1.30646 0.0301967 1.45627 0.0888216 1.59579C0.147447 1.73531 0.233321 1.86172 0.341416 1.96763L13.6339 14.9276C13.8674 15.1552 14.1804 15.2825 14.5064 15.2825C14.8324 15.2825 15.1455 15.1552 15.3789 14.9276L28.6714 1.97013C28.7803 1.86414 28.8668 1.73742 28.9259 1.59744C28.985 1.45746 29.0154 1.30707 29.0154 1.15513C29.0154 1.0032 28.985 0.852802 28.9259 0.712824C28.8668 0.572846 28.7803 0.446122 28.6714 0.340132C28.4482 0.122076 28.1485 0 27.8364 0C27.5243 0 27.2247 0.122076 27.0014 0.340132V0.342633Z" fill="#808997"/>
</svg>
